<mxfile host="app.diagrams.net" agent="Mozilla/5.0 (Windows NT 10.0; Win64; x64) AppleWebKit/537.36 (KHTML, like Gecko) Chrome/132.0.0.0 Safari/537.36" version="26.0.11">
  <diagram name="PÃ¡gina-1" id="x7PyNc2QjhXTcTaIEcoQ">
    <mxGraphModel>
      <root>
        <mxCell id="0" />
        <mxCell id="1" parent="0" />
        <mxCell id="2" value="Start" style="whiteSpace=wrap;strokeWidth=2;" vertex="1" parent="1">
          <mxGeometry x="544" y="8" width="95" height="54" as="geometry" />
        </mxCell>
        <mxCell id="3" value="Initialize App" style="rounded=1;arcSize=20;strokeWidth=2" vertex="1" parent="1">
          <mxGeometry x="530" y="112" width="124" height="54" as="geometry" />
        </mxCell>
        <mxCell id="4" value="User Logged In?" style="rhombus;strokeWidth=2;whiteSpace=wrap;" vertex="1" parent="1">
          <mxGeometry x="509" y="216" width="165" height="165" as="geometry" />
        </mxCell>
        <mxCell id="5" value="Load Tasks" style="whiteSpace=wrap;strokeWidth=2;" vertex="1" parent="1">
          <mxGeometry x="417" y="453" width="135" height="54" as="geometry" />
        </mxCell>
        <mxCell id="6" value="Show Login Screen" style="whiteSpace=wrap;strokeWidth=2;" vertex="1" parent="1">
          <mxGeometry x="602" y="453" width="193" height="54" as="geometry" />
        </mxCell>
        <mxCell id="7" value="Tasks Loaded Successfully?" style="rhombus;strokeWidth=2;whiteSpace=wrap;" vertex="1" parent="1">
          <mxGeometry x="363" y="557" width="244" height="244" as="geometry" />
        </mxCell>
        <mxCell id="8" value="Display Tasks" style="whiteSpace=wrap;strokeWidth=2;" vertex="1" parent="1">
          <mxGeometry x="334" y="874" width="152" height="54" as="geometry" />
        </mxCell>
        <mxCell id="9" value="Show Error Message" style="whiteSpace=wrap;strokeWidth=2;" vertex="1" parent="1">
          <mxGeometry x="384" y="2941" width="201" height="54" as="geometry" />
        </mxCell>
        <mxCell id="10" value="Perform Task" style="rounded=1;arcSize=20;strokeWidth=2" vertex="1" parent="1">
          <mxGeometry x="301" y="978" width="122" height="54" as="geometry" />
        </mxCell>
        <mxCell id="11" value="Task Completed?" style="rhombus;strokeWidth=2;whiteSpace=wrap;" vertex="1" parent="1">
          <mxGeometry x="215" y="1082" width="173" height="173" as="geometry" />
        </mxCell>
        <mxCell id="12" value="Ask for Feedback" style="whiteSpace=wrap;strokeWidth=2;" vertex="1" parent="1">
          <mxGeometry x="139" y="1327" width="182" height="54" as="geometry" />
        </mxCell>
        <mxCell id="13" value="Retry Task" style="whiteSpace=wrap;strokeWidth=2;" vertex="1" parent="1">
          <mxGeometry x="379" y="1714" width="133" height="54" as="geometry" />
        </mxCell>
        <mxCell id="14" value="Positive Feedback?" style="rhombus;strokeWidth=2;whiteSpace=wrap;" vertex="1" parent="1">
          <mxGeometry x="136" y="1453" width="188" height="188" as="geometry" />
        </mxCell>
        <mxCell id="15" value="Thank User" style="whiteSpace=wrap;strokeWidth=2;" vertex="1" parent="1">
          <mxGeometry x="138" y="1714" width="140" height="54" as="geometry" />
        </mxCell>
        <mxCell id="16" value="User Wants to Add New Task?" style="rhombus;strokeWidth=2;whiteSpace=wrap;" vertex="1" parent="1">
          <mxGeometry x="69" y="1818" width="278" height="278" as="geometry" />
        </mxCell>
        <mxCell id="17" value="Open Add Task Form" style="whiteSpace=wrap;strokeWidth=2;" vertex="1" parent="1">
          <mxGeometry x="8" y="2168" width="204" height="54" as="geometry" />
        </mxCell>
        <mxCell id="18" value="End" style="whiteSpace=wrap;strokeWidth=2;" vertex="1" parent="1">
          <mxGeometry x="276" y="2168" width="86" height="54" as="geometry" />
        </mxCell>
        <mxCell id="19" value="Form Validated?" style="rhombus;strokeWidth=2;whiteSpace=wrap;" vertex="1" parent="1">
          <mxGeometry x="26" y="2294" width="168" height="168" as="geometry" />
        </mxCell>
        <mxCell id="20" value="Add Task" style="whiteSpace=wrap;strokeWidth=2;" vertex="1" parent="1">
          <mxGeometry x="49" y="2535" width="122" height="54" as="geometry" />
        </mxCell>
        <mxCell id="21" value="Task Added Successfully?" style="rhombus;strokeWidth=2;whiteSpace=wrap;" vertex="1" parent="1">
          <mxGeometry x="295" y="2639" width="230" height="230" as="geometry" />
        </mxCell>
        <mxCell id="22" value="" style="curved=1;startArrow=none;endArrow=block;exitX=0.5;exitY=1;entryX=0.5;entryY=0;" edge="1" parent="1" source="2" target="3">
          <mxGeometry relative="1" as="geometry">
            <Array as="points" />
          </mxGeometry>
        </mxCell>
        <mxCell id="23" value="" style="curved=1;startArrow=none;endArrow=block;exitX=0.5;exitY=1;entryX=0.5;entryY=0;" edge="1" parent="1" source="3" target="4">
          <mxGeometry relative="1" as="geometry">
            <Array as="points" />
          </mxGeometry>
        </mxCell>
        <mxCell id="24" value="Yes" style="curved=1;startArrow=none;endArrow=block;exitX=0.05;exitY=1;entryX=0.5;entryY=0.01;" edge="1" parent="1" source="4" target="5">
          <mxGeometry relative="1" as="geometry">
            <Array as="points">
              <mxPoint x="485" y="417" />
            </Array>
          </mxGeometry>
        </mxCell>
        <mxCell id="25" value="No" style="curved=1;startArrow=none;endArrow=block;exitX=0.95;exitY=1;entryX=0.5;entryY=0.01;" edge="1" parent="1" source="4" target="6">
          <mxGeometry relative="1" as="geometry">
            <Array as="points">
              <mxPoint x="699" y="417" />
            </Array>
          </mxGeometry>
        </mxCell>
        <mxCell id="26" value="" style="curved=1;startArrow=none;endArrow=block;exitX=0.5;exitY=1.01;entryX=0.5;entryY=0;" edge="1" parent="1" source="5" target="7">
          <mxGeometry relative="1" as="geometry">
            <Array as="points" />
          </mxGeometry>
        </mxCell>
        <mxCell id="27" value="Yes" style="curved=1;startArrow=none;endArrow=block;exitX=0.26;exitY=1;entryX=0.5;entryY=-0.01;" edge="1" parent="1" source="7" target="8">
          <mxGeometry relative="1" as="geometry">
            <Array as="points">
              <mxPoint x="410" y="837" />
            </Array>
          </mxGeometry>
        </mxCell>
        <mxCell id="28" value="No" style="curved=1;startArrow=none;endArrow=block;exitX=1;exitY=0.96;entryX=0.87;entryY=0;" edge="1" parent="1" source="7" target="9">
          <mxGeometry relative="1" as="geometry">
            <Array as="points">
              <mxPoint x="658" y="837" />
              <mxPoint x="658" y="2905" />
            </Array>
          </mxGeometry>
        </mxCell>
        <mxCell id="29" value="" style="curved=1;startArrow=none;endArrow=block;exitX=0.33;exitY=0.99;entryX=0.5;entryY=-0.01;" edge="1" parent="1" source="8" target="10">
          <mxGeometry relative="1" as="geometry">
            <Array as="points">
              <mxPoint x="362" y="953" />
            </Array>
          </mxGeometry>
        </mxCell>
        <mxCell id="30" value="" style="curved=1;startArrow=none;endArrow=block;exitX=0.24;exitY=0.99;entryX=0.5;entryY=0;" edge="1" parent="1" source="10" target="11">
          <mxGeometry relative="1" as="geometry">
            <Array as="points">
              <mxPoint x="301" y="1057" />
            </Array>
          </mxGeometry>
        </mxCell>
        <mxCell id="31" value="Yes" style="curved=1;startArrow=none;endArrow=block;exitX=0.21;exitY=1;entryX=0.5;entryY=-0.01;" edge="1" parent="1" source="11" target="12">
          <mxGeometry relative="1" as="geometry">
            <Array as="points">
              <mxPoint x="231" y="1290" />
            </Array>
          </mxGeometry>
        </mxCell>
        <mxCell id="32" value="No" style="curved=1;startArrow=none;endArrow=block;exitX=0.88;exitY=1;entryX=0.33;entryY=-0.01;" edge="1" parent="1" source="11" target="13">
          <mxGeometry relative="1" as="geometry">
            <Array as="points">
              <mxPoint x="394" y="1290" />
              <mxPoint x="394" y="1677" />
            </Array>
          </mxGeometry>
        </mxCell>
        <mxCell id="33" value="" style="curved=1;startArrow=none;endArrow=block;exitX=0.5;exitY=0.99;entryX=0.5;entryY=0;" edge="1" parent="1" source="12" target="14">
          <mxGeometry relative="1" as="geometry">
            <Array as="points" />
          </mxGeometry>
        </mxCell>
        <mxCell id="34" value="Yes" style="curved=1;startArrow=none;endArrow=block;exitX=0.42;exitY=1;entryX=0.5;entryY=-0.01;" edge="1" parent="1" source="14" target="15">
          <mxGeometry relative="1" as="geometry">
            <Array as="points">
              <mxPoint x="208" y="1677" />
            </Array>
          </mxGeometry>
        </mxCell>
        <mxCell id="35" value="No" style="curved=1;startArrow=none;endArrow=block;exitX=0.8;exitY=1;entryX=0.06;entryY=-0.01;" edge="1" parent="1" source="14" target="13">
          <mxGeometry relative="1" as="geometry">
            <Array as="points">
              <mxPoint x="308" y="1677" />
            </Array>
          </mxGeometry>
        </mxCell>
        <mxCell id="36" value="" style="curved=1;startArrow=none;endArrow=block;exitX=0.68;exitY=-0.01;entryX=1;entryY=0.91;" edge="1" parent="1" source="13" target="10">
          <mxGeometry relative="1" as="geometry">
            <Array as="points">
              <mxPoint x="502" y="1677" />
              <mxPoint x="502" y="1057" />
            </Array>
          </mxGeometry>
        </mxCell>
        <mxCell id="37" value="" style="curved=1;startArrow=none;endArrow=block;exitX=0.5;exitY=0.99;entryX=0.5;entryY=0;" edge="1" parent="1" source="15" target="16">
          <mxGeometry relative="1" as="geometry">
            <Array as="points" />
          </mxGeometry>
        </mxCell>
        <mxCell id="38" value="Yes" style="curved=1;startArrow=none;endArrow=block;exitX=0.22;exitY=1;entryX=0.5;entryY=0;" edge="1" parent="1" source="16" target="17">
          <mxGeometry relative="1" as="geometry">
            <Array as="points">
              <mxPoint x="110" y="2132" />
            </Array>
          </mxGeometry>
        </mxCell>
        <mxCell id="39" value="No" style="curved=1;startArrow=none;endArrow=block;exitX=0.82;exitY=1;entryX=0.51;entryY=0;" edge="1" parent="1" source="16" target="18">
          <mxGeometry relative="1" as="geometry">
            <Array as="points">
              <mxPoint x="319" y="2132" />
            </Array>
          </mxGeometry>
        </mxCell>
        <mxCell id="40" value="" style="curved=1;startArrow=none;endArrow=block;exitX=0.47;exitY=1;entryX=0.44;entryY=0;" edge="1" parent="1" source="17" target="19">
          <mxGeometry relative="1" as="geometry">
            <Array as="points">
              <mxPoint x="94" y="2258" />
            </Array>
          </mxGeometry>
        </mxCell>
        <mxCell id="41" value="Yes" style="curved=1;startArrow=none;endArrow=block;exitX=0.5;exitY=1;entryX=0.5;entryY=0;" edge="1" parent="1" source="19" target="20">
          <mxGeometry relative="1" as="geometry">
            <Array as="points" />
          </mxGeometry>
        </mxCell>
        <mxCell id="42" value="No" style="curved=1;startArrow=none;endArrow=block;exitX=1;exitY=0.06;entryX=0.78;entryY=1;" edge="1" parent="1" source="19" target="17">
          <mxGeometry relative="1" as="geometry">
            <Array as="points">
              <mxPoint x="245" y="2258" />
            </Array>
          </mxGeometry>
        </mxCell>
        <mxCell id="43" value="" style="curved=1;startArrow=none;endArrow=block;exitX=0.5;exitY=1;entryX=0;entryY=0.27;" edge="1" parent="1" source="20" target="21">
          <mxGeometry relative="1" as="geometry">
            <Array as="points">
              <mxPoint x="110" y="2614" />
            </Array>
          </mxGeometry>
        </mxCell>
        <mxCell id="44" value="Yes" style="curved=1;startArrow=none;endArrow=block;exitX=1;exitY=0.04;entryX=1;entryY=0.98;" edge="1" parent="1" source="21" target="8">
          <mxGeometry relative="1" as="geometry">
            <Array as="points">
              <mxPoint x="560" y="2614" />
              <mxPoint x="560" y="953" />
            </Array>
          </mxGeometry>
        </mxCell>
        <mxCell id="45" value="No" style="curved=1;startArrow=none;endArrow=block;exitX=0.5;exitY=1;entryX=0.34;entryY=0;" edge="1" parent="1" source="21" target="9">
          <mxGeometry relative="1" as="geometry">
            <Array as="points">
              <mxPoint x="410" y="2905" />
            </Array>
          </mxGeometry>
        </mxCell>
      </root>
    </mxGraphModel>
  </diagram>
</mxfile>
